<svg xmlns="http://www.w3.org/2000/svg" viewBox="0 0 455.77 517.27"><defs><style>.cls-1{fill:#fff;}</style></defs><g id="Layer_2" data-name="Layer 2"><g id="Layer_1-2" data-name="Layer 1"><path class="cls-1" d="M135.39,163.66c4.25-3.63,10.15-2.89,12.66-7.39l-.59-1H133.24l-.09-1.25,22.33-3.21c-.2-3.28-.39-6.35-.59-9.64,1.13-.72,2.29-1.48,3.47-2.2,12.8-7.84,19.81-22,15.7-36.39-2.49-8.7-7.81-15-16.44-18.26a3.63,3.63,0,0,1-1.46-.66c-5.31-6.08-11.94-4.32-18.72-3.35l-13.77-6.54A243.49,243.49,0,0,1,178,47.54l18.92,12.28c-2,12.28-4,24.26-6.17,37.1,3.13-1.41,5.74-2.47,8.25-3.73,8.87-4.42,17.66-9,26.6-13.26,1.17-.56,3.19-.15,4.49.48,10.48,5.07,20.87,10.3,31.29,15.47.74.36,1.54.6,3.24,1.27-1.93-11.81-3.76-23-5.64-34.46L276.3,47.51C296,53.33,313.91,62.14,331.68,73.9l-14.31,6.79c-4.28-2.6-9-1.18-13.7-.71-.83.08-2.07.3-2.36.85-2,3.88-6.28,4.17-9.39,6.26-10.07,6.75-14.46,19.81-10.7,32.43,2.58,8.66,8,15.15,15.73,19.77l3.3,2c-.26,3.18-.51,6.36-.77,9.61L322.73,154l-.08,1.12H308l-.63,1.08c2.52,4.75,8.54,3.93,12.23,7.24l-13.74-.91c-1.68,5.81-2.58,11.53-1.3,17.11s3.61,10.64,5.49,16a23.5,23.5,0,0,1-9.43-10c-.39.14-.73.18-.74.28-1.52,9.12-8.89,14.14-14.34,20.53s-10.59,12.9-15.76,19.23V215.19l-13.08,2.88-10.51-9.72v-8.92c4.8-5.13,5.84-10.75,2.82-15.05,2.64-11.21,2.77-22.14-8.21-29.34a24.32,24.32,0,0,0-26.8.06c-11,7.23-10.17,18.08-7.45,29-3.39,4.78-2.63,9.75,1.89,14.88,2.58,6.47,0,10.28-4.59,14.28-4.36,3.84-8.29,5.19-13.57,2.89a27.13,27.13,0,0,0-4.92-1.11c.31,4.43.59,8.44.88,12.51-1.84-2.4-3.28-5.15-5.23-7.46-5.85-6.91-11.57-14-17.82-20.48-3.31-3.46-6.12-6.87-6.94-11.67a11.06,11.06,0,0,0-.71-2.11l-9.74,10.25-1.45-.77c8-10,7.9-21.08,5.1-33Z"/><path class="cls-1" d="M279.89,333.82l-2.44,13.78H176.82c-3.27-18.63-6.55-37.3-9.9-56.37l0-.14c-3,.2-5.9.43-8.74.62v-9.38c5.11,0,10.31-.05,15.62-.05.9,5.07,1.78,10.12,2.68,15.17,2.4,13.68,4.79,27.3,7.19,41h88c.63-1.45,1.25-2.89,2-4.63Z"/><path class="cls-1" d="M176.45,297.45l-5.67,4.86c-.91-4.17-1.65-7.58-2.42-11.15l-1.44.07c-.89,0-1.66.07-2.43.12-13.34.74-26.67,2-40,2.09-16.94.12-30.73-6.43-40-21.3-5-8-7.34-16.69-8.26-25.81-1,1.84-2,3.69-3.06,5.52L72,251.59c-6.51-16.18-1.64-32,1.53-48.15,6.56,4.92,12.54,9.43,18.8,14.13-.18,1.16-.35,2.65-.64,4.11-2.54,12.73-3,25.46.23,38.15,2.73,10.95,9.53,18.21,20.57,20.41a127.66,127.66,0,0,0,22.12,1.95c7.79.18,15.57.18,23.54.14,5.11,0,10.31-.05,15.62-.05C174.67,287.35,175.55,292.4,176.45,297.45Z"/><path class="cls-1" d="M39.14,235.14C2.53,206,0,150.18,22.29,112.27c.47,2.64.85,4.76,1.21,6.89,2,11.58,7.65,21.21,15.65,29.56,4.92,5.14,10,10.09,15.05,15.13,1.13,1.14,2.2,2.32,3.37,3.55C44.45,187.92,36.41,209.69,39.14,235.14Z"/><path class="cls-1" d="M433.87,112.58c10.53,20.63,15.81,42.13,13.15,65.18-2.63,22.7-12.07,41.94-30.26,56.67a94.09,94.09,0,0,0-3.66-35,121.44,121.44,0,0,0-15-31.83c3.57-3.72,6.83-7.27,10.25-10.66,7.75-7.67,15.72-15.27,20-25.55C430.68,125.56,431.92,119.29,433.87,112.58Z"/><path class="cls-1" d="M247.79,52.54C249.93,61.8,252,70.87,254.37,81L227.61,67.2l-26.6,14c2.32-10.19,4.42-19.44,6.57-28.88l-24.45-23h31.55L227.75,0h0l12.72,29.23h31.61l0,.08Z"/><path class="cls-1" d="M354.76,220.39a68.77,68.77,0,0,1,2.31,24.25c-17.21,10.88-37.1,13.82-55.81,20.05,18.66-1.14,37.34-2.08,54.46-11.22,1.16,7.47-4,16.64-11.5,19.09a68.34,68.34,0,0,1-18,3.2c-12.81.58-25.65.41-38.49.54a9.18,9.18,0,0,1-1.51-.39c1.58-4.87.77-10.15,5-14.43,6-6.15,11.45-12.88,17.22-19.29a13,13,0,0,1,4-3.08c13.63-6.21,27.3-12.3,41-18.42A9.47,9.47,0,0,1,354.76,220.39Z"/><path class="cls-1" d="M98,244.45c.56-7.8,1.13-15.66,1.73-23.92a24.39,24.39,0,0,1,2.93.8c13,5.77,26,11.51,38.92,17.41a18.58,18.58,0,0,1,5.64,4.06c6.33,6.76,12.57,13.61,18.59,20.63,1.21,1.4,1.46,3.69,1.93,5.63.55,2.25.85,4.57,1.29,7a23.06,23.06,0,0,1-2.3.23c-14.54-.29-29.09-.53-43.63-.91-5.22-.14-10.29-1.13-14.73-4.17-6-4.13-8.65-10-9.19-18,17.65,9.35,36.28,10.34,54.91,11.43C135.59,258.35,115.89,255.47,98,244.45Z"/><path class="cls-1" d="M281.66,282.28c13.83,0,26.86.21,39.89-.09a128.64,128.64,0,0,0,22.12-1.94c11-2.21,17.84-9.47,20.58-20.43,3.17-12.69,2.76-25.41.23-38.14-.29-1.46-.47-3-.65-4.11l18.8-14.13c3.18,16.14,8.05,32,1.54,48.15l-1.15.26L380,246.33c-.93,9.12-3.28,17.84-8.26,25.81-9.28,14.87-23.08,21.42-40,21.3-13.34-.1-26.68-1.35-40-2.09l-3.87-.19c-.78,3.57-1.52,7-2.42,11.14l-6.57-5.63C279.83,291.57,280.8,286.65,281.66,282.28Z"/><path class="cls-1" d="M369.61,173.06c-17.45,7.87-22.43,21.55-16.92,39.94-11.68,5.5-22.94,10.8-34.21,16.09l-.7-.48c8.2-12,12.67-25.46,16.26-39.25s7-27.74,10.47-41.75l-3.71-1.43c0-1.14,0-2.32,0-3.49a23.57,23.57,0,0,1,.44-2.5h26c2.44,4.09,6.43,8.22,5,14.79C371,160.74,370.5,166.68,369.61,173.06Z"/><path class="cls-1" d="M87.49,140h26.35l.78,5.78L111,147.64c6.75,27.78,10.64,56.47,26.18,81.78l-34.63-16.5c5.32-18.28.74-32.1-16.91-39.86-1.08-7.68-2.88-15-2.83-22.37C82.86,146.84,86.11,143,87.49,140Z"/><path class="cls-1" d="M267.73,382.67l-24,19.44c2.15,8.6,4.25,17,6.35,25.35l-.35.27-22.67-12.34L205.28,428l-.11-.08c2.17-8.58,4.33-17.15,6.56-26l-24-19.69h30.54l9.34-17.93,9.08,17.9h30.93Z"/><path class="cls-1" d="M296.85,325.53H261.71C259.48,314,250,308.66,240.88,303.05c-9.91-6.13-16.72-14.49-17.58-26.35-.45-6.26.59-12.64,1.15-18.95a79.36,79.36,0,0,1,1.53-8.91,20.39,20.39,0,0,1,1.12-3.09h1.23c.69,3.92,1.27,7.86,2.09,11.76,1.19,5.68,2.29,11.41,3.9,17,2.34,8.07,7.71,13.56,15.6,16.51,3.33,1.24,6.66,2.48,10,3.6,15.55,5.16,26.61,15.91,36,28.75A14.08,14.08,0,0,1,296.85,325.53Z"/><path class="cls-1" d="M438.59,250.11c.87,13.59.88,27.15-2.39,40.51-2.8,11.44-9.16,20.56-18.14,28-.14.11-.41.07-1.26.18,3.33-6.27,4.94-12.57,2.8-19.9L411.27,319c-2.43-6.19-5.65-12.14-7.49-18.49-2.43-8.36.46-16,5.18-22.89a126,126,0,0,1,9.93-12.33c7.07-8,14.6-15.65,17.94-26.34C437.26,242.71,438.35,246.38,438.59,250.11Z"/><path class="cls-1" d="M44.24,318.78c-2.56-6.42-5.13-12.83-7.76-19.42-3,6.86-.48,13,1.84,19.3C30.61,313,24.88,305.88,21.81,296.9c-4.93-14.4-5.73-29.31-5-44.36.22-4.24,1.12-8.45,1.59-12.68,1.72,2.82,2.81,6.12,4.8,8.74C27.46,254.18,32,259.49,36.37,265c4.15,5.22,8.64,10.24,12.18,15.85a25.37,25.37,0,0,1,2,24.45C48.58,309.83,46.31,314.27,44.24,318.78Z"/><path class="cls-1" d="M246.17,517.12,227.49,505.3l-18.44,12,5.36-21.1L196,479.48l22.67-1.18c2.85-6.15,5.72-12.37,9-19.57l9.11,20.33h23.31l-19.26,17.06C242.64,503.15,244.4,510.13,246.17,517.12Z"/><path class="cls-1" d="M73.45,158.67c2.48,6.26,1,11.79-.76,17.43-3.55,11.64-7.29,23.24-10.13,35.06a88.13,88.13,0,0,0-1.89,33.71c1.15,7.66,4.54,14.33,9,20.52a86.45,86.45,0,0,1,5.81,9c-8.58-3.91-16.52-8.6-21.43-17-6.75-11.58-7.93-24.26-6.9-37.27,1.81-22.77,10.44-42.75,25-60.23C72.48,159.5,72.82,159.25,73.45,158.67Z"/><path class="cls-1" d="M381.66,158.39c13.65,15.14,22.14,32.15,25.45,51.68a88.08,88.08,0,0,1,0,32.13c-2.49,12.53-8.8,22.32-20.13,28.61-2,1.1-3.93,2.25-5.91,3.34a9.55,9.55,0,0,1-1.71.4c1-1.39,1.56-2.32,2.25-3.16,9-10.87,15.16-22.9,14.16-37.45-.56-8.14-1.23-16.39-3.11-24.3-2.65-11.18-6.36-22.12-9.84-33.09-1.62-5.08-3.28-10.05-2-15.45C381,160.3,381.32,159.52,381.66,158.39Z"/><path class="cls-1" d="M0,358.61c6.34,1.31,12.24,2.93,18.25,3.66,5.11.63,10.35,0,15.51.33,13.38.76,25,5.6,33.85,15.89a26.58,26.58,0,0,1,4.11,7.35c-9.19-6.4-18.81-11.1-29.94-11.12L70.44,391.3c-13.26-.81-26.83,2.25-39.73-3.3C16.85,382,9,369.85,0,358.61Z"/><path class="cls-1" d="M386.65,390.71l27.88-16c-11.15-.29-20.64,4.75-30.11,11a24.48,24.48,0,0,1,1.5-3.61c5.27-8.65,13.43-13.44,22.64-16.78a50.72,50.72,0,0,1,20.36-2.79c8.75.52,17.21-.47,25.19-4.32.25-.12.6,0,1.66,0-8,10.33-14.88,20.82-26,27.47C416.2,393.81,401.28,391.07,386.65,390.71Z"/><path class="cls-1" d="M296.21,456.89c15-12.32,31.5-15.65,49.85-8.71,8,3,16.06,5.68,24.79,5.21a11.35,11.35,0,0,1,3.92.41c-7.88,5.93-16,11.39-25.46,14.36-13.42,4.19-27.2,2.13-45.69-6.71,8-3.75,16.35-4.7,25.2-4.93-3.51-2.35-10.2-3.51-17.4-2.23-6.41,1.14-12.59,3.57-18.91,5.17C293.13,457.86,295.06,457.84,296.21,456.89Z"/><path class="cls-1" d="M160.64,458.81c-6.09-1.66-11.51-3.73-17.11-4.52s-11.29-.53-16.3,1.49l26.05,5.3c-12.65,4.2-24.64,10.83-38.8,8.88-13.1-1.82-23.57-9-34.65-16.17.86-.32,1.31-.65,1.71-.61,9.51,1,18.41-1.56,27.13-4.86,9.85-3.74,19.86-5,30.1-2.21a51.81,51.81,0,0,1,20.15,10.63A18.12,18.12,0,0,1,160.64,458.81Z"/><path class="cls-1" d="M389.17,41.59c4.69,15.48-4.31,35.66-19.8,43.69C358.28,91,346.21,94,334.13,96.81a7.1,7.1,0,0,1-1.6,0l1-1-10.62-8.07c2.41-1.3,3.81-2.22,5.33-2.84,8.08-3.3,16.21-6.46,24.28-9.79,11-4.55,21-10.7,28.25-20.36C383.87,50.64,386.33,46.08,389.17,41.59Z"/><path class="cls-1" d="M333.49,434.1a36.73,36.73,0,0,1,13.3-12.83,39.26,39.26,0,0,1,29.27-4.53c6.5,1.48,13,3.27,19.54,4.24,4.48.66,9.14.13,14.46.13-10.27,7.42-20,15-32.12,18.57-12.52,3.65-24.5.48-37.21-2.9,8.74-4.32,17.13-7.86,26.24-9.71-5.72-1.16-11.47-1.35-17,.45S339.32,431.75,333.49,434.1Z"/><path class="cls-1" d="M132,87.44l-9,9.48a77.55,77.55,0,0,1-8.12-1.61c-7.82-2.4-15.8-4.48-23.33-7.63C70.06,78.68,64.22,63,65.73,43a8.32,8.32,0,0,1,.55-1.6,14.44,14.44,0,0,1,1.38,1.94C73.77,56.69,83.93,66.05,97,72.17c9.75,4.56,19.84,8.39,29.77,12.59C128.24,85.38,129.61,86.19,132,87.44Z"/><path class="cls-1" d="M45.62,419.81c10,2.73,18.91.9,27.79-1.53A62.33,62.33,0,0,1,84.15,416c14.44-1.32,26.36,3.75,35.73,14.8a11.81,11.81,0,0,1,1.25,1.88,5.79,5.79,0,0,1,.2,1.53c-10.61-6.67-21.73-9.37-33.12-7.62l28.33,9.68c-10.32,3-20.69,5.94-31.65,4.71C73.41,439.74,51.9,428.28,45.62,419.81Z"/><path class="cls-1" d="M125.85,484.82c9.09-2.28,16.05-6.54,22.85-11.16,10.06-6.84,20.9-10.17,33.06-6.79,4.44,1.24,8.64,3,12.08,6.48a40.58,40.58,0,0,0-30.18,4h22.66c-4.65,5.22-9.94,9.53-16.69,11.82-8.13,2.75-16.42,2.26-24.64.88-5.4-.9-10.68-2.55-16-3.91A27.49,27.49,0,0,1,125.85,484.82Z"/><path class="cls-1" d="M262.23,472.81a27.12,27.12,0,0,1,12.44-6.31,35.54,35.54,0,0,1,26,3.58,59.17,59.17,0,0,1,6.61,4C314,479,321.2,483,329.57,484.57l.11.83c-3.12.91-6.2,2-9.37,2.69-9.7,2.13-19.42,4-29.45,2.28-8.34-1.4-14.95-5.65-21-12.1,6.94-2.37,13.67-2.06,20.46-1.53C281.53,471.65,272.12,471.1,262.23,472.81Z"/><path class="cls-1" d="M453.28,316.74c-7.69,9.5-12,21.43-21.7,29.48a43.42,43.42,0,0,1-25.1,9.28l15-18.92c-2,.19-6.7,2.88-11.17,7.27-3.37,3.3-6.4,6.94-10.3,11.21a32.75,32.75,0,0,1,.77-4.3c4.52-13.09,12.25-23.3,26-27.61,8.5-2.68,17.18-4.76,25.79-7.11Z"/><path class="cls-1" d="M33.08,335.34l16.86,21C42.6,355.24,35.08,354,29,349.43A60.73,60.73,0,0,1,17.1,337.82C12,331.09,7.68,323.74,3,316.67c.44-.33.64-.58.75-.54,10.47,3.21,21.33,5.52,31.27,9.93C45.79,330.81,52,340.39,55.12,351.7a5.3,5.3,0,0,1,0,2.59C48.91,346.39,42,339.57,33.08,335.34Z"/><path class="cls-1" d="M378.58,89.27l4.67-4.46A22.14,22.14,0,0,1,387,96.17c.86,10.21-3.41,18.18-11.16,24.5a48.23,48.23,0,0,1-30.45,10.89c-3.64.07-7.28,0-11.23,0V117.72l5.23-.4c7.08-.48,14.27-.33,21.2-1.59,9.84-1.78,15.95-8.16,17.91-18.06C379,95.2,378.58,92.56,378.58,89.27Z"/><path class="cls-1" d="M121.34,117.89v12.94a5.28,5.28,0,0,1-1.4.56c-15.82.74-30.82-1.11-42.94-12.89-8.29-8.06-11-20.76-6.41-31.29a15,15,0,0,1,1.15-1.82c.5.16.87.16,1.09.36,1.37,1.2,2.71,2.45,3.84,3.49a54.84,54.84,0,0,0,0,7.61,23.36,23.36,0,0,0,21,19.69c5.58.46,11.2.5,16.79.78C116.68,117.43,118.8,117.67,121.34,117.89Z"/><path class="cls-1" d="M84.67,364c10.55,12.29,17.55,25.66,15.1,41.84l-20.71-13.6C75,382.62,79.36,373.35,84.67,364Z"/><path class="cls-1" d="M376.83,392.16,356,405.85c-2.32-16,4.55-29.48,15.07-41.83C376.25,373,380.57,382.13,376.83,392.16Z"/><path class="cls-1" d="M422.36,405.83c-4.72,3.14-10.13,4.4-15.53,5.61-8.63,1.92-17.09.5-25.57-1.34-5.3-1.16-10.74-1.64-16.22-2.45a17.16,17.16,0,0,1,1.69-1.56,39.41,39.41,0,0,1,31.3-6.93C406.2,400.71,414.12,403.52,422.36,405.83Z"/><path class="cls-1" d="M33.1,405.32c10.36-2.25,20.49-5.15,30.83-6.49,10.12-1.31,19.18,2.69,27.35,8.95-.38.43-.6.85-.74.82-7.36-1.15-14.37.83-21.38,2.47-12.48,2.91-24.16.58-35.43-4.93C33.5,406,33.37,405.68,33.1,405.32Z"/><path class="cls-1" d="M198.71,467.58c-5.28-2.64-10.42-4.68-15-7.62-4.25-2.75-5.45-7.7-6-12.46-.67-6.24-.83-12.53-1.19-18.48C187.39,433.94,200.07,450.07,198.71,467.58Z"/><path class="cls-1" d="M279,429.06c-.46,6.09-.65,12.47-1.48,18.76-.9,6.9-3.48,12.83-10.94,15.32-3.23,1.08-6.23,2.88-9.33,4.35C253.14,457.38,267.5,432.81,279,429.06Z"/><path class="cls-1" d="M170.41,456.86c-4.63-3.14-9.27-5.6-13.06-9-5-4.53-5.63-10.94-5.29-17.34.26-5,.75-10,1.13-14.87C161.63,419.91,173.19,439.19,170.41,456.86Z"/><path class="cls-1" d="M302.13,415.53c.55,5.67,1.22,11.19,1.57,16.73.48,7.64-1.82,13.92-9,17.84-3.36,1.83-6.42,4.22-9.66,6.38C283.3,443.08,289.91,424.31,302.13,415.53Z"/><path class="cls-1" d="M130.88,405.85c10.06,10,14.25,22,14.46,36.1-6-2.32-11.6-4.79-16.13-9.1s-6.05-9.63-3.7-15.58C127,413.41,129,409.74,130.88,405.85Z"/><path class="cls-1" d="M310.72,442.19c-.43-14.38,4.57-26,14-36.56,2.2,5.35,4.76,10.28,6.23,15.52,1.15,4.12-.83,8.05-3.72,11.2C322.79,437.16,316.77,439.28,310.72,442.19Z"/><path class="cls-1" d="M299.43,91.9c.88,4.12,2.52,7.74-.58,12.08-4.62,6.47-1.82,15.06,5.66,19.52,1.74,1,3.59,1.9,5.34,2.82v6.47c-7.54,1.1-19-7.11-21.21-17.17C286.45,105.85,291.33,94.55,299.43,91.9Z"/><path class="cls-1" d="M50.33,131.83c-4.35-4.45-4.65-11.47-10.44-14l18.62-25.6c0,5.85-.88,11.35.22,16.42,1.41,6.52.31,11.66-4,16.5C53,127,51.89,129.39,50.33,131.83Z"/><path class="cls-1" d="M59.31,340.92c-3.26-4.27-6.25-8.06-9.07-12a6.55,6.55,0,0,1-1.05-3.33c-.4-6.66,6.56-17.77,13.11-20.86C66,317,67.42,328.94,59.31,340.92Z"/><path class="cls-1" d="M404.76,131.77c-3.09-4.52-5.86-8.48-8.5-12.53a4.88,4.88,0,0,1-.82-3c.49-4,1.55-8,1.74-12.09s-.43-8.07-.71-12.36c6.3,8.71,12.47,17.25,18.14,25.11Z"/><path class="cls-1" d="M145.46,132.77v-6.62c4.67-2.4,9.79-4.64,12.13-10.17,2.44-5.77,1.18-10.72-3.45-15.08.39-2.89.79-5.83,1.19-8.78,7,1.11,13.16,11.88,11.37,21.57C164.7,124.58,154.22,134.1,145.46,132.77Z"/><path class="cls-1" d="M395.82,340.59c-7.17-11.72-6.22-23.7-2.28-36.12,7.12,4.88,11.74,11.11,12.46,19.62a10,10,0,0,1-1.87,5.91C401.66,333.64,398.72,337,395.82,340.59Z"/><path class="cls-1" d="M94.1,208.56c-6.52-3.38-12.39-6.66-16.11-12.67a5.48,5.48,0,0,1-.84-3.35c.58-3.91,1.44-7.78,2.25-12,6.12.85,10.75,3.43,13.91,8.26C97.34,195,96.55,201.43,94.1,208.56Z"/><path class="cls-1" d="M123.06,102.87l-3.17,9c-8.47-1-17.41-.93-25.08-5.38-3.37-2-5.53-6.06-8.07-9.31-.55-.7-.39-2-.55-3Z"/><path class="cls-1" d="M375.82,180.26c.9,4.17,1.9,8,2.48,11.89a6.11,6.11,0,0,1-1.19,3.86c-3.83,5.68-9.22,9.46-15.79,12.54-2.32-6.33-2.92-12.43,0-18.48C364.14,184.25,369.45,181.91,375.82,180.26Z"/><path class="cls-1" d="M335.64,111.85c-1.2-3.3-2.21-6.1-3.25-9l37-8.44c-1,5.75-3.77,10.13-9,12.5C352.45,110.45,344,111,335.64,111.85Z"/><path class="cls-1" d="M216.57,278.06c-5.48-14.86-10-30-11.45-45.84l8.27,14.05,5.09-7.08,4,5.2C220.46,255.89,218.51,267,216.57,278.06Z"/><path class="cls-1" d="M116.37,418.63c-7.6-3.77-11.9-12.81-10.22-21.76.77-4.11,1.77-8.16,2.67-12.23C120.05,390.52,123.78,407.2,116.37,418.63Z"/><path class="cls-1" d="M346.61,384.8c.85,3.66,1.69,7.16,2.49,10.68,2.12,9.31-.79,17-8.51,22.59a14.52,14.52,0,0,1-1.34.73C332.12,407.59,335.93,390.59,346.61,384.8Z"/><path class="cls-1" d="M228.33,323.09c-16.61-24.64-27.9-52-40.21-78.88h-6.77L196.1,239l-6.94-6.93c1.57-3.59,5.69-7.52,9.21-8.16L195,231.43l6.83,10.65-8.13,3.06A279.62,279.62,0,0,0,208,282C214.54,295.78,221.63,309.34,228.33,323.09Z"/><path class="cls-1" d="M240.18,278.48c-2.59-11.14-5.17-22.26-7.79-33.55l3.9-5.86,5.47,7.34c2.52-4.25,4.87-8.23,7.22-12.21C248.11,249.44,243.92,263.91,240.18,278.48Z"/><path class="cls-1" d="M70.62,371c-9-5.43-10.85-12.66-4.27-22,2.35-3.34,6.37-5.51,10-7.91C77.26,351.82,77.53,362.12,70.62,371Z"/><path class="cls-1" d="M379.12,340.93c7.44,3.92,13.49,8.41,14,17.41.36,5.81-1.09,8.28-7.71,12.51C380.68,365.59,377.84,352.43,379.12,340.93Z"/><path class="cls-1" d="M230.19,223.36l13.61-8.5c6.29,6.14,5.63,13.61-2.2,24.15C237.83,233.85,234.22,228.9,230.19,223.36Z"/><path class="cls-1" d="M213.65,239.15c-2.5-4.15-4.8-7.75-6.82-11.5a5,5,0,0,1,0-3.45c1-3.12,2.2-6.17,3.57-9.93l14.51,9.18Z"/><path class="cls-1" d="M258.94,238.7,272,243.85l-5,.82-18,38.92c4.17-12.74,8.24-25.15,12.6-38.45L253,241.79l7.32-9.93-3.8-8.76c4.58,1.48,6.83,5.34,9.69,9Z"/><path class="cls-1" d="M163.05,245c-12-11.8-22.64-24.73-28.81-41l26.29,29.31-2.1.38C160,237.54,161.53,241.28,163.05,245Z"/><path class="cls-1" d="M319.26,206.23c-5.75,15.28-15.61,27.77-27.49,38.94,1.76-3.76,3.51-7.53,5.56-11.92l-3.44.56Z"/><path class="cls-1" d="M237.53,160.32c-14.62-.31-18.21,1.47-19.84,10.1-4.24.24-6.92,2.55-7.38,8-3-8.38.89-17.95,7.64-21.17C225.26,153.76,234.49,155.21,237.53,160.32Z"/><path class="cls-1" d="M84.63,287.47l7.81,5.89c-7.13,3.7-13.68,7.12-20.92,10.89-1-3.28-1.83-6-2.77-9.14Z"/><path class="cls-1" d="M74.76,135.59l-8.47,13.94-8.75-7.19,8.32-14.06Z"/><path class="cls-1" d="M307.86,142.88c.13-2.37.24-4.22.36-6.24h25.1c-.18,3-.33,5.62-.51,8.7Z"/><path class="cls-1" d="M370.6,287.41l16,7.9c-.89,3-1.68,5.56-2.71,9l-20.67-10.88Z"/><path class="cls-1" d="M122.29,145.43c-.16-3.06-.29-5.57-.44-8.49H146.9c.07,1.62.16,3.48.27,5.89Z"/><path class="cls-1" d="M389.08,149.54c-3-4.84-5.77-9.27-8.69-14l8.67-6.91,8,13.66Z"/><path class="cls-1" d="M128.89,121.24c1-10.82,10.63-10.58,17.62-14.39l2.18,4C141.67,114,133.63,114.5,128.89,121.24Z"/><path class="cls-1" d="M306.47,110.8l1.15-3.31c10.46,1.75,19.88,6.24,19,13.91C321.63,114.33,313.64,113.8,306.47,110.8Z"/><path class="cls-1" d="M149.45,99.21c-3.2-1.39-4.18-5.29-3.21-10a2.24,2.24,0,0,1,1.82-1.75h0A2.28,2.28,0,0,1,150.76,90C150.32,93.12,149.9,96,149.45,99.21Z"/><path class="cls-1" d="M141.21,88h0a2.09,2.09,0,0,1,2.3,2.22c-.2,2.94-.38,5.62-.55,8.28-3.26.29-4.87-4.13-3.61-8.92A2.12,2.12,0,0,1,141.21,88Z"/><path class="cls-1" d="M308.23,99.24c-3.07-1.56-4.22-5-3.79-9.63a2.21,2.21,0,0,1,2.19-2h0a2.19,2.19,0,0,1,2.19,2.34C308.63,93,308.44,95.94,308.23,99.24Z"/><path class="cls-1" d="M314.55,88.16l0,0A2.08,2.08,0,0,1,316,90.45c-.43,2.93-.86,5.78-1.3,8.8-2.8-1.34-3.69-4.66-2.86-9.47A2.1,2.1,0,0,1,314.55,88.16Z"/><path class="cls-1" d="M136.75,92.67c.83,3.24.44,5.7-1.14,7.92a6.88,6.88,0,0,1-1.41-8.29A1.4,1.4,0,0,1,136.75,92.67Z"/><path class="cls-1" d="M320.65,92c1.75,2,1.43,5.75-1.06,8.71-1.71-1.51-2.13-5.37-1.11-8.32A1.28,1.28,0,0,1,320.65,92Z"/><path class="cls-1" d="M325.84,95.44c1.71,2.09,1.34,4.82-1.38,6.91V95.91A.77.77,0,0,1,325.84,95.44Z"/><path class="cls-1" d="M131.42,95.84c-.12,2.16-.22,4.1-.34,6.32-3-2.17-3.43-4.7-1.37-7A1,1,0,0,1,131.42,95.84Z"/><path class="cls-1" d="M160.17,302.19c-6.61.41-12.51.88-18.41,1.11-12.16.47-24.35,1.57-36.22-2.61a6.8,6.8,0,0,0-4.85.71C93,305.56,76.14,315.5,74.8,316.46l4.08,8.86c1.36-.76,19.77-12.26,25.07-15.51a3.4,3.4,0,0,1,4.74,1.21h0a3.41,3.41,0,0,1-.84,4.35l-24,19.09L88,340.91,110.77,323a3.57,3.57,0,0,1,5.32,1h0a3.57,3.57,0,0,1-.66,4.36L93.5,349.09c1.84,2.27,3.52,4.36,5.43,6.73,5.83-5.68,15.26-14.78,19.94-19.28a3,3,0,0,1,4.74.69h0a3,3,0,0,1-.4,3.57c-3.83,4.13-18.6,20.38-19.34,21.79l9.63,9.28c5.1-6,10-11.76,14.94-17.5a3.19,3.19,0,0,1,5.21.49h0a3.18,3.18,0,0,1-.24,3.52c-2.6,3.42-13.21,17.62-14.18,19.16l5.5,4.75,25.56-34.23h18C165.54,332.38,162.87,317.4,160.17,302.19Z"/><path class="cls-1" d="M353.2,300.7a4.32,4.32,0,0,0-3.13-.14c-12.17,4.18-24.69,3.26-37.18,2.64-6.12-.3-12.23-.63-18.57-1-.53,2.18-1,4-1.45,5.93,6.25,8.17,13.21,15.62,18.68,25.18H288.33c-.77,4.95-1.49,9.54-2.34,15h18.3c3.11,3.7,5.34,6.07,7.25,8.68,5.53,7.57,17.9,24.54,19,25.7l5.61-5.16c-5.68-7.69-11.18-15.14-16.65-22.53a3.08,3.08,0,0,1,0-3.67h0a3.06,3.06,0,0,1,4.76-.12c6.47,7.64,16.88,19.69,18.34,20.43l9.06-9.57c-3.55-3.92-15.2-17-20.18-22.73a2.86,2.86,0,0,1-.12-3.61h0a2.87,2.87,0,0,1,4.29-.31l21,20.54,5.09-6.8-21.19-20a3.72,3.72,0,0,1-.41-5h0a3.73,3.73,0,0,1,5.23-.71c8,6.11,21,16,22.32,16.91l3.83-6.16L350,317.41a3.76,3.76,0,0,1-.67-5.24h0a3.77,3.77,0,0,1,5-.92c8,5,20.92,13.17,22.37,14,1.37-3.08,2.6-5.82,4-9C371.21,310.81,362.24,305.7,353.2,300.7Zm-37.58,49.1.17-.21,0,.47Z"/><path class="cls-1" d="M218.8,360.65c-17.15.07-34.29.09-51.44.32a6,6,0,0,1-5.49-2.5c-1.82-2.33-3.86-4.49-6.09-7.06l-25.24,35.78c7.44,5.25,14,10.76,22.28,14.11l6.52,3.18h0a140.41,140.41,0,0,0,40,13.68c1.32-4.74,2.48-8.93,3.67-13.2l-19.13-16.1h0L179.25,372a134.82,134.82,0,0,0,32.52,3.87,15,15,0,0,0,2.64-.48L222,361.13A25.14,25.14,0,0,0,218.8,360.65Z"/><path class="cls-1" d="M237.34,360.65c17.15.07,34.3.09,51.45.32a6,6,0,0,0,5.49-2.5c1.81-2.33,3.85-4.49,6.09-7.06l25.23,35.78c-7.43,5.25-14,10.76-22.28,14.11l-6.52,3.18h0a140.2,140.2,0,0,1-40,13.68c-1.32-4.74-2.48-8.93-3.66-13.2l19.13-16.1h0L276.89,372a134.7,134.7,0,0,1-32.52,3.87,14.72,14.72,0,0,1-2.63-.48l-7.57-14.21A25.4,25.4,0,0,1,237.34,360.65Z"/></g></g></svg>